<svg id="Layer_1" data-name="Layer 1" xmlns="http://www.w3.org/2000/svg" viewBox="0 0 979.67 192.26"><defs><style>.cls-1,.cls-4{fill:#00508c;}.cls-1,.cls-2,.cls-3{stroke:#00508c;}.cls-1,.cls-2{stroke-width:0.95px;}.cls-2,.cls-3{fill:#fff;}.cls-2,.cls-3,.cls-4{fill-rule:evenodd;}.cls-3{stroke-width:2px;}</style></defs><circle class="cls-1" cx="72.3" cy="72.83" r="71.83"/><path class="cls-2" d="M156.08,109c-9.88,34.14-39.43,52.2-69.12,52.56-32,.4-57.38-21.28-66.76-45.8,5.28,0,39.17.1,58.88.12,24.28-6.89-.08,0,24.27-6.88C107.84,109,147.08,108.86,156.08,109Z" transform="translate(-14.66 -16.87)"/><path id="System" class="cls-3" d="M174.56,142.93a45.54,45.54,0,0,0,20.56,17q13.09,5.64,32.49,5.65a65.34,65.34,0,0,0,27.52-5.6,43,43,0,0,0,18.75-15.69,38.74,38.74,0,0,0,6.53-21.48,35.49,35.49,0,0,0-5.94-20.31q-5.94-8.82-18.41-14.57-8.58-3.89-31.62-9.11T196,68.64A16.22,16.22,0,0,1,190.4,56q0-8.86,7.84-15.15t25-6.28q16.46,0,24.89,6.91T258,61.91l18.12-1.36a43.25,43.25,0,0,0-7-22.51,40.39,40.39,0,0,0-18.65-15q-12.14-5.11-28-5.11a68,68,0,0,0-26.21,4.87Q184.45,27.63,178.32,37a36.22,36.22,0,0,0-6.14,20.22,32.58,32.58,0,0,0,5,17.78q5,8,15.25,13.3,7.89,4.19,27.57,8.92t25.43,7q9,3.42,12.86,8.43a18.65,18.65,0,0,1,3.9,11.74,20.51,20.51,0,0,1-4.05,12.23q-4,5.6-12.32,8.81a52.48,52.48,0,0,1-19.1,3.22,54.61,54.61,0,0,1-21.92-4.24q-9.74-4.24-14.37-11.11t-5.89-17.58l-17.83,1.55A48.25,48.25,0,0,0,174.56,142.93Zm122,65.2a25.38,25.38,0,0,0,14.42-4q6-4,10.72-12.71,3.51-6.44,9.84-23.48L370.89,62.67H353.35L331.23,123a235.53,235.53,0,0,0-7.2,23.57q-3.31-12.57-7.51-24L295,62.67h-18.9l39.26,103.67c-.71,1.88-1.23,3.31-1.55,4.29q-3.71,10.43-5.36,13.05a16.09,16.09,0,0,1-5.75,5.46,19.27,19.27,0,0,1-9.35,1.94,39.22,39.22,0,0,1-10-1.56L285.25,206a35.15,35.15,0,0,0,11.3,2.14h0Zm77.95-51q10.58,8.39,30.74,8.38a53.6,53.6,0,0,0,21.82-4.24,33.05,33.05,0,0,0,14.77-12,29.47,29.47,0,0,0,5.11-16.51q0-9-4.19-15a26.35,26.35,0,0,0-11.54-9.2q-7.36-3.17-26-8.14-12.86-3.5-15.49-4.48A15.43,15.43,0,0,1,383,91.25a9.66,9.66,0,0,1-2.14-6.14q0-5.35,5.16-9.36t17.24-4q10.23,0,15.84,4.49a18.76,18.76,0,0,1,6.77,12.47L443,86.38q-1.65-10-6-16t-13.59-9.5A60,60,0,0,0,402,57.34a53.23,53.23,0,0,0-15.15,2.09,36.2,36.2,0,0,0-11.15,5.12,28.27,28.27,0,0,0-8.62,9.79,26.52,26.52,0,0,0-3.17,12.81,25.51,25.51,0,0,0,15.15,23.72q7.46,3.57,26.74,8.43,14.32,3.61,17.93,6a10.64,10.64,0,0,1,5.16,9.35q0,6.63-5.84,11.54t-17.93,4.92q-12,0-18.66-5.55t-8.13-16L361,132.26Q363.93,148.73,374.5,157.1Zm104.92-8a11.65,11.65,0,0,1-6-1.27,7.21,7.21,0,0,1-3-3.41q-.93-2.15-.93-9.64V74.32h17.64V60.68H469.48V24.53L452,35.05V60.68H439.18V74.32H452v59.52q0,15.78,2.14,20.7a16.89,16.89,0,0,0,7.41,7.94q5.25,3,14.81,3a64.9,64.9,0,0,0,13.25-1.56l-2.53-15.49a56.77,56.77,0,0,1-7.7.68h0ZM542.33,147a26.76,26.76,0,0,1-16.46,5.07A28.7,28.7,0,0,1,504.24,143q-8.67-9.06-9.64-26.11h77.15c.07-2.08.1-3.64.1-4.68q0-25.62-13.15-39.75T524.8,58.34q-21.43,0-34.88,14.42t-13.44,40.52q0,25.25,13.29,39.22t36,14q18,0,29.62-8.77t15.88-24.65l-18.12-2.24q-4,11.12-10.82,16.17ZM504.68,80.84A27.87,27.87,0,0,1,525,72.75a26.89,26.89,0,0,1,21.72,10.14q5.46,6.52,6.63,19.58H495.57Q496.44,88.93,504.68,80.84Zm84.2,85.3V112.45q0-14.11,2.82-21.62a22.12,22.12,0,0,1,9.11-11.4,25.49,25.49,0,0,1,13.69-3.9q9.74,0,14,5.85t4.29,17.53v67.23h17.53V106q0-16,7.21-23.24a24.48,24.48,0,0,1,18.12-7.26,19.35,19.35,0,0,1,10.53,2.83,14.69,14.69,0,0,1,6.18,7.45c1.14,3.08,1.7,8.13,1.71,15.15v65.18h17.43v-71q0-17.73-8.28-26.25t-23.67-8.53q-19.68,0-32,18.12a25.6,25.6,0,0,0-10.38-13.34q-7.35-4.78-18.86-4.78A36.47,36.47,0,0,0,587,77.19V62.67H571.33V166.14h17.55Z" transform="translate(-14.66 -16.87)"/><path id="_559" data-name=" 559" class="cls-4" d="M729.47,155Q741.8,165.95,761.28,166q23.78,0,37.51-17.34,11.31-14.13,11.3-33.52,0-20.36-12.86-33.32t-31.56-13q-14.13,0-27,9l7.7-38.39h57V22.63h-71L718.51,96,735,98.14a29.64,29.64,0,0,1,10.73-10A30.48,30.48,0,0,1,761,84.31q13.63,0,22.07,8.67t8.42,23.67q0,15.78-8.76,25.33a28,28,0,0,1-21.44,9.55,25.76,25.76,0,0,1-18-6.77q-7.45-6.78-9.5-20.22L715.4,126.1Q717.14,144.13,729.47,155Zm95,0Q836.8,165.95,856.29,166q23.76,0,37.51-17.34,11.3-14.13,11.3-33.52,0-20.36-12.86-33.32t-31.57-13q-14.11,0-27,9l7.69-38.39h57V22.63h-71L813.52,96,830,98.14a29.7,29.7,0,0,1,10.72-10A30.52,30.52,0,0,1,856,84.31q13.63,0,22.06,8.67t8.43,23.67q0,15.78-8.77,25.33a28,28,0,0,1-21.43,9.55,25.8,25.8,0,0,1-18-6.77q-7.45-6.78-9.5-20.22L810.4,126.1Q812.16,144.13,824.48,155Zm91.33,3.6q10.62,9.3,27.38,9.3,15.78,0,27.52-8.48t17.68-24.69q5.94-16.23,5.94-43.6,0-26.31-6-40.19T970.81,29.6a45.76,45.76,0,0,0-25.48-7.51q-19.29,0-32.1,13.25t-12.81,35q0,21,12.27,33.9a39.89,39.89,0,0,0,30,12.86,38.91,38.91,0,0,0,19.73-5.21,40.09,40.09,0,0,0,14.37-13.59c.06,1.56.1,2.73.1,3.51a88.49,88.49,0,0,1-2.63,21.43q-2.64,10.51-6.53,16.71a30.37,30.37,0,0,1-10,9.89,26.69,26.69,0,0,1-14.17,3.7q-9.45,0-15.49-5.36t-8.18-17.24L903,132.48q2.15,16.85,12.77,26.15ZM967,93.07q-7.85,8.54-20,8.53a27.12,27.12,0,0,1-20.32-8.53q-8.24-8.52-8.23-22.16,0-15.19,8.67-24.74t20.36-9.55q11.31,0,19.34,8.86t8,24q0,15.11-7.84,23.63Z" transform="translate(-14.66 -16.87)"/></svg>